<svg width="240" height="48" viewBox="0 0 240 48" fill="none" xmlns="http://www.w3.org/2000/svg">
<g clip-path="url(#clip0_5:518)">
<path d="M79.0425 33.0834C76.5784 33.0834 74.5657 32.3105 73.0176 30.7778C71.4694 29.2451 70.6953 27.2016 70.6953 24.634V24.1886C70.6953 22.4725 71.0178 20.9399 71.6758 19.5906C72.3338 18.2413 73.2498 17.1933 74.4496 16.4598C75.6494 15.7262 77.017 15.3594 78.5394 15.3594C80.8358 15.3594 82.6549 16.093 83.9709 17.5732C85.2868 19.0535 85.9577 21.1364 85.9577 23.8349V25.6951H75.2495C75.3914 26.8086 75.8301 27.6994 76.5654 28.3805C77.3008 29.0486 78.2168 29.3892 79.3392 29.3892C81.068 29.3892 82.4227 28.7473 83.3903 27.4767L85.5964 29.9918C84.9256 30.9612 84.0096 31.721 82.8613 32.2581C81.7131 32.8083 80.4359 33.0834 79.0425 33.0834ZM78.5265 19.0535C77.6363 19.0535 76.9138 19.3548 76.359 19.9705C75.8043 20.5862 75.4559 21.4639 75.2882 22.6035H81.5325V22.2367C81.5067 21.2281 81.2487 20.4421 80.7197 19.8788C80.2165 19.3286 79.4812 19.0535 78.5265 19.0535Z" fill="#191622"/>
<path d="M94.434 20.7833L97.2595 15.6875H102.059L97.2724 24.0452L102.265 32.7565H97.453L94.4598 27.3856L91.4796 32.7565H86.6416L91.6344 24.0452L86.8609 15.6875H91.6731L94.434 20.7833Z" fill="#191622"/>
<path d="M118.882 24.3851C118.882 27.0182 118.289 29.1272 117.115 30.6992C115.941 32.2843 114.354 33.0702 112.354 33.0702C110.651 33.0702 109.284 32.4677 108.239 31.2756V39.3189H103.749V15.6738H107.916L108.071 17.3505C109.155 16.0275 110.574 15.3594 112.328 15.3594C114.406 15.3594 116.018 16.1323 117.166 17.6911C118.315 19.25 118.895 21.3984 118.895 24.1362V24.3851H118.882ZM114.393 24.0576C114.393 22.4725 114.122 21.2412 113.567 20.3766C113.012 19.512 112.212 19.0797 111.154 19.0797C109.748 19.0797 108.781 19.6299 108.252 20.7172V27.7125C108.806 28.839 109.774 29.4023 111.193 29.4023C113.322 29.4023 114.393 27.6208 114.393 24.0576Z" fill="#191622"/>
<path d="M128.919 33.0834C126.455 33.0834 124.443 32.3105 122.895 30.7778C121.346 29.2451 120.572 27.2016 120.572 24.634V24.1886C120.572 22.4725 120.895 20.9399 121.553 19.5906C122.211 18.2413 123.127 17.1933 124.327 16.4598C125.526 15.7262 126.894 15.3594 128.416 15.3594C130.713 15.3594 132.532 16.093 133.848 17.5732C135.164 19.0535 135.835 21.1364 135.835 23.8349V25.6951H125.126C125.268 26.8086 125.707 27.6994 126.442 28.3805C127.178 29.0486 128.094 29.3892 129.216 29.3892C130.945 29.3892 132.3 28.7473 133.267 27.4767L135.473 29.9918C134.803 30.9612 133.887 31.721 132.738 32.2581C131.603 32.8083 130.326 33.0834 128.919 33.0834ZM128.416 19.0535C127.526 19.0535 126.804 19.3548 126.249 19.9705C125.694 20.5862 125.346 21.4639 125.178 22.6035H131.422V22.2367C131.397 21.2281 131.139 20.4421 130.61 19.8788C130.106 19.3286 129.371 19.0535 128.416 19.0535Z" fill="#191622"/>
<path d="M147.355 19.9707C146.749 19.8921 146.207 19.8397 145.742 19.8397C144.039 19.8397 142.93 20.4292 142.401 21.595V32.7691H137.911V15.7001H142.156L142.285 17.7306C143.188 16.1586 144.439 15.3857 146.026 15.3857C146.529 15.3857 146.994 15.4512 147.419 15.5953L147.355 19.9707Z" fill="#191622"/>
<path d="M155.2 11.4951V15.687H158.077V19.0275H155.2V27.5554C155.2 28.1842 155.316 28.6427 155.561 28.9178C155.793 29.1929 156.258 29.3239 156.929 29.3239C157.432 29.3239 157.87 29.2846 158.244 29.2191V32.6774C157.367 32.9525 156.451 33.0835 155.522 33.0835C152.374 33.0835 150.762 31.4723 150.71 28.2366V19.0406H148.259V15.7002H150.71V11.5082H155.2V11.4951Z" fill="#191622"/>
<path d="M169.211 28.0399C169.211 27.4767 168.94 27.0444 168.398 26.7169C167.856 26.4025 166.979 26.1143 165.779 25.8523C161.78 25.0008 159.78 23.2716 159.78 20.6779C159.78 19.1583 160.399 17.9007 161.638 16.879C162.876 15.8572 164.489 15.3594 166.489 15.3594C168.617 15.3594 170.333 15.8703 171.611 16.8921C172.888 17.9138 173.533 19.2369 173.533 20.8744H169.03C169.03 20.2194 168.824 19.6823 168.411 19.2631C167.998 18.8308 167.353 18.6212 166.463 18.6212C165.702 18.6212 165.121 18.7915 164.708 19.1452C164.295 19.4989 164.089 19.9312 164.089 20.4683C164.089 20.9792 164.321 21.3853 164.799 21.6866C165.276 22.001 166.063 22.263 167.185 22.4856C168.308 22.7083 169.25 22.9703 170.011 23.2454C172.385 24.1231 173.572 25.6558 173.572 27.8435C173.572 29.4023 172.914 30.6599 171.598 31.6293C170.282 32.5856 168.579 33.0702 166.502 33.0702C165.095 33.0702 163.844 32.8214 162.747 32.3105C161.651 31.7996 160.799 31.1053 160.18 30.2145C159.561 29.3237 159.251 28.3674 159.251 27.3326H163.508C163.547 28.1447 163.844 28.7604 164.399 29.1927C164.953 29.625 165.689 29.8346 166.605 29.8346C167.469 29.8346 168.114 29.6643 168.553 29.3368C168.992 29.0093 169.211 28.577 169.211 28.0399Z" fill="#191622"/>
<path d="M190.433 29.4019C191.259 29.4019 191.93 29.1661 192.459 28.7076C192.975 28.2491 193.246 27.6334 193.272 26.8606H197.478C197.465 28.0133 197.155 29.0744 196.549 30.0438C195.942 31.0001 195.104 31.7599 194.033 32.2839C192.975 32.8209 191.801 33.0829 190.511 33.0829C188.111 33.0829 186.215 32.31 184.821 30.7512C183.428 29.2054 182.744 27.057 182.744 24.3192V24.0179C182.744 21.3849 183.428 19.2889 184.808 17.7169C186.189 16.1449 188.072 15.3721 190.485 15.3721C192.588 15.3721 194.278 15.9746 195.542 17.1929C196.807 18.4112 197.452 20.0225 197.478 22.0398H193.272C193.246 21.1491 192.988 20.4286 192.459 19.8784C191.943 19.3282 191.259 19.04 190.408 19.04C189.363 19.04 188.576 19.433 188.034 20.2059C187.505 20.9788 187.234 22.2363 187.234 23.9786V24.4502C187.234 26.2056 187.492 27.4762 188.021 28.2491C188.55 29.022 189.35 29.4019 190.433 29.4019Z" fill="#191622"/>
<path d="M204.302 32.7687H199.8V8.53418H204.302V32.7687Z" fill="#191622"/>
<path d="M217.591 31.0269C216.481 32.3893 214.946 33.0836 212.985 33.0836C211.179 33.0836 209.811 32.5596 208.856 31.5116C207.914 30.4636 207.424 28.9178 207.398 26.8874V15.7002H211.888V26.7433C211.888 28.5248 212.688 29.4156 214.288 29.4156C215.81 29.4156 216.855 28.8785 217.423 27.8044V15.7002H221.925V32.7692H217.694L217.591 31.0269Z" fill="#191622"/>
<path d="M240 24.3853C240 27.1231 239.419 29.2584 238.271 30.778C237.123 32.3106 235.51 33.0704 233.459 33.0704C231.64 33.0704 230.182 32.363 229.085 30.9352L228.879 32.756H224.841V8.52148H229.331V17.2197C230.363 15.9883 231.73 15.3727 233.42 15.3727C235.472 15.3727 237.084 16.1325 238.245 17.6651C239.406 19.1978 240 21.3461 240 24.1233V24.3853ZM235.51 24.0578C235.51 22.3286 235.239 21.071 234.697 20.272C234.156 19.4729 233.356 19.0799 232.285 19.0799C230.853 19.0799 229.872 19.6694 229.331 20.8615V27.5947C229.885 28.7999 230.879 29.3894 232.311 29.3894C233.756 29.3894 234.71 28.6689 235.175 27.2148C235.407 26.5336 235.51 25.4726 235.51 24.0578Z" fill="#191622"/>
<path opacity="0.5" d="M47.2732 0.255956V36.5412C47.2732 36.679 47.1568 36.7972 47.0211 36.7972H30.5784V17.2075C30.5784 17.0696 30.462 16.9515 30.3263 16.9515H11.0332V0.255956C11.0332 0.118139 11.1495 0 11.2853 0H47.0211C47.1568 0 47.2732 0.0984504 47.2732 0.255956Z" fill="#DD2919"/>
<path opacity="0.5" d="M30.5781 36.7978V47.7444C30.5781 47.8822 30.4617 48.0004 30.326 48.0004H0.25207C0.11634 48.0004 0 47.8822 0 47.7444V17.2081C0 17.0703 0.11634 16.9521 0.25207 16.9521H11.0329V36.5419C11.0329 36.6797 11.1493 36.7978 11.285 36.7978H30.5781Z" fill="#DD2919"/>
<path d="M30.5784 17.2081V36.7978H11.2853C11.1495 36.7978 11.0332 36.6797 11.0332 36.5419V16.9521H30.3263C30.462 16.9521 30.5784 17.0703 30.5784 17.2081Z" fill="#DD2919"/>
</g>
<defs>
<clipPath id="clip0_5:518">
<rect width="240" height="48" fill="white"/>
</clipPath>
</defs>
</svg>
